<?xml version="1.0" encoding="UTF-8" standalone="no"?>
<svg
   xmlns:dc="http://purl.org/dc/elements/1.1/"
   xmlns:cc="http://creativecommons.org/ns#"
   xmlns:rdf="http://www.w3.org/1999/02/22-rdf-syntax-ns#"
   xmlns:svg="http://www.w3.org/2000/svg"
   xmlns="http://www.w3.org/2000/svg"
   xmlns:sodipodi="http://sodipodi.sourceforge.net/DTD/sodipodi-0.dtd"
   xmlns:inkscape="http://www.inkscape.org/namespaces/inkscape"
   version="1.1"
   id="Layer_1"
   x="0px"
   y="0px"
   viewBox="0 0 122.88 106.3"
   style="enable-background:new 0 0 122.88 106.3"
   xml:space="preserve"
   sodipodi:docname="gauge.svg"
   inkscape:version="0.92.2 (5c3e80d, 2017-08-06)"><metadata
     id="metadata11"><rdf:RDF><cc:Work
         rdf:about=""><dc:format>image/svg+xml</dc:format><dc:type
           rdf:resource="http://purl.org/dc/dcmitype/StillImage" /><dc:title></dc:title></cc:Work></rdf:RDF></metadata><defs
     id="defs9" /><sodipodi:namedview
     pagecolor="#ffffff"
     bordercolor="#666666"
     borderopacity="1"
     objecttolerance="10"
     gridtolerance="10"
     guidetolerance="10"
     inkscape:pageopacity="0"
     inkscape:pageshadow="2"
     inkscape:window-width="1920"
     inkscape:window-height="1017"
     id="namedview7"
     showgrid="false"
     inkscape:zoom="7.3541861"
     inkscape:cx="63.059324"
     inkscape:cy="50.897883"
     inkscape:window-x="-8"
     inkscape:window-y="-8"
     inkscape:window-maximized="1"
     inkscape:current-layer="g4" /><g
     id="g4"><path
       d="M 55.297818,55.681747 70.267551,25.254202 c 0.09295,-0.23208 0.347773,-0.351929 0.586549,-0.286462 l 3.885769,1.077962 c 0.238776,0.06547 0.397998,0.308054 0.360011,0.553527 l -5.432315,32.773636 c -0.911812,4.428443 -3.385134,6.693234 -6.096191,7.335316 -1.351256,0.318444 -2.744309,0.240967 -4.031368,-0.181858 -1.281862,-0.414281 -2.452534,-1.165365 -3.362376,-2.180395 -1.805944,-2.026714 -2.522154,-5.090624 -0.891705,-8.645246 z"
       id="path3704"
       inkscape:connector-curvature="0"
       inkscape:transform-center-x="-3.1946969"
       inkscape:transform-center-y="-13.493876" /><path
       d="M 19.33,106.17 C 16.28,103.3 13.53,100.12 11.12,96.69 8.73,93.29 6.68,89.63 5.01,85.78 3.38,82 2.12,78.02 1.26,73.88 0.44,69.86 0,65.7 0,61.44 0,53.12 1.66,45.19 4.65,37.95 7.77,30.43 12.33,23.66 18,18 23.66,12.34 30.43,7.77 37.95,4.66 45.19,1.66 53.12,0 61.44,0 c 8.3,0 16.21,1.66 23.43,4.66 7.52,3.12 14.28,7.7 19.95,13.37 5.68,5.68 10.26,12.46 13.38,19.97 3.01,7.24 4.68,15.16 4.68,23.44 0,4.05 -0.4,8.01 -1.16,11.85 -0.78,3.94 -1.95,7.75 -3.46,11.4 -1.54,3.71 -3.43,7.25 -5.64,10.55 -2.23,3.34 -4.78,6.45 -7.6,9.3 -0.19,0.19 -0.51,0.19 -0.7,0 l -3.07,-3.06 c -0.06,-0.02 -0.12,-0.06 -0.17,-0.11 l -8.56,-8.56 c -0.19,-0.19 -0.19,-0.51 0,-0.7 l 4.49,-4.49 c 0.19,-0.19 0.51,-0.19 0.7,0 l 6.61,6.61 c 1.4,-1.82 2.69,-3.72 3.85,-5.7 1.25,-2.12 2.35,-4.34 3.3,-6.63 1.28,-3.1 2.29,-6.35 2.97,-9.71 0.64,-3.12 1,-4.35 1.07,-7.64 h -9.11 c -0.27,0 -0.5,-0.22 -0.5,-0.5 V 57.7 c 0,-0.27 0.22,-0.5 0.5,-0.5 h 8.76 c -0.68,-5.85 -2.31,-13.43 -4.72,-18.58 -2.49,-5.31 -5.82,-10.15 -9.82,-14.37 l -5.86,5.86 c -0.19,0.19 -0.51,0.19 -0.7,0 l -4.49,-4.49 c -0.19,-0.19 -0.19,-0.51 0,-0.7 l 5.65,-5.65 C 90.78,15.7 85.77,12.81 80.35,10.77 75.1,8.8 71.47,7.62 65.6,7.39 v 8.03 c 0,0.27 -0.22,0.5 -0.5,0.5 h -6.36 c -0.27,0 -0.5,-0.22 -0.5,-0.5 V 7.59 c -5.83,0.55 -13.4,2.04 -18.54,4.29 -5.31,2.33 -10.17,5.49 -14.42,9.3 l 5.87,5.87 c 0.19,0.19 0.19,0.51 0,0.7 l -4.49,4.49 c -0.19,0.19 -0.51,0.19 -0.7,0 l -5.8,-5.8 C 16.43,30.84 13.38,35.85 11.2,41.3 9.1,46.6 7.79,52.29 7.44,58.23 h 9.03 c 0.27,0 0.5,0.22 0.5,0.5 v 6.36 c 0,0.27 -0.22,0.5 -0.5,0.5 H 7.5 c 0.22,2.94 0.68,5.8 1.35,8.58 0.72,3.01 1.7,5.92 2.91,8.72 1.05,2.43 2.27,4.76 3.64,6.98 1.29,2.09 2.72,4.09 4.28,5.97 l 7.24,-7.24 c 0.19,-0.19 0.51,-0.19 0.7,0 l 4.49,4.49 c 0.19,0.19 0.19,0.51 0,0.7 -4.14,4.14 -8.09,8.11 -12.09,12.36 -0.18,0.2 -0.49,0.21 -0.69,0.02 z"
       id="path2"
       inkscape:connector-curvature="0"
       sodipodi:nodetypes="ccccscccscscsccccccssssscccccsssscccsssscccsssscccsssscccsssscccccsssscc" /></g></svg>