<?xml version="1.0" standalone="no"?>
<!DOCTYPE svg PUBLIC "-//W3C//DTD SVG 20010904//EN"
 "http://www.w3.org/TR/2001/REC-SVG-20010904/DTD/svg10.dtd">
<svg version="1.0" xmlns="http://www.w3.org/2000/svg"
 width="900.000000pt" height="500.000000pt" viewBox="0 0 900.000000 500.000000"
 preserveAspectRatio="xMidYMid meet">

<g transform="translate(0.000000,500.000000) scale(0.100000,-0.100000)"
fill="#000000" stroke="none">
<path d="M185 3288 c-3 -7 -4 -359 -3 -783 l3 -770 128 -3 127 -3 0 82 0 82
60 -57 c233 -223 665 -142 845 159 60 101 78 172 78 315 0 109 -4 135 -27 205
-65 191 -212 330 -402 379 -72 19 -210 21 -286 5 -71 -15 -160 -63 -215 -116
-24 -24 -46 -43 -48 -43 -3 0 -5 126 -5 280 l0 280 -125 0 c-91 0 -127 -3
-130 -12z m793 -658 c120 -64 173 -153 180 -300 5 -123 -17 -186 -94 -269 -78
-85 -131 -106 -264 -106 -95 0 -111 3 -162 28 -126 62 -190 163 -196 309 -6
142 41 248 143 318 75 51 109 60 225 57 98 -2 109 -5 168 -37z"/>
<path d="M1637 3294 c-12 -12 -8 -1144 4 -1230 16 -119 43 -180 108 -245 55
-54 114 -85 199 -104 l32 -7 0 125 0 125 -34 25 c-18 14 -42 43 -52 64 -18 36
-19 75 -24 643 l-5 605 -111 3 c-60 1 -113 -1 -117 -4z"/>
<path d="M5866 3290 c-124 -39 -122 -226 3 -260 125 -33 216 89 153 207 -24
45 -100 70 -156 53z"/>
<path d="M6423 3293 c-34 -7 -80 -55 -91 -96 -29 -104 63 -195 169 -167 128
35 127 223 -2 260 -35 10 -38 10 -76 3z"/>
<path d="M8220 3090 l0 -200 -85 0 -85 0 0 -115 0 -115 84 0 84 0 4 -312 c4
-290 6 -318 26 -378 40 -117 107 -187 219 -230 46 -18 81 -23 168 -24 61 0
122 2 138 7 l27 7 0 119 0 120 -32 -10 c-135 -38 -271 30 -297 149 -6 31 -11
155 -11 302 l0 250 173 2 172 3 3 113 3 112 -176 0 -175 0 0 200 0 200 -120 0
-120 0 0 -200z"/>
<path d="M2113 2543 c5 -365 11 -411 63 -516 83 -165 226 -268 420 -302 102
-18 165 -19 254 -4 208 33 361 139 440 304 21 44 43 104 49 133 7 32 11 185
11 387 l0 335 -125 0 c-123 0 -125 0 -126 -22 -1 -13 -1 -147 -1 -298 0 -151
-4 -300 -10 -330 -20 -115 -107 -219 -216 -260 -78 -30 -234 -25 -301 9 -69
36 -135 104 -167 174 l-29 62 -3 333 -4 332 -130 0 -130 0 5 -337z"/>
<path d="M3955 2866 c-232 -54 -385 -194 -439 -403 -36 -136 -12 -348 51 -466
143 -265 559 -367 873 -214 80 39 187 142 224 215 l26 52 -152 0 -153 -1 -30
-31 c-16 -17 -55 -42 -85 -57 -47 -22 -69 -25 -155 -26 -88 0 -107 3 -156 26
-31 15 -75 43 -97 63 -44 40 -92 125 -92 163 l0 23 479 0 479 0 6 33 c7 37 -7
175 -25 239 -30 115 -128 244 -230 305 -100 59 -199 85 -339 89 -82 3 -145 -1
-185 -10z m339 -245 c68 -33 115 -81 141 -145 30 -71 52 -66 -325 -66 -383 0
-359 -6 -316 79 39 75 121 137 213 161 21 5 80 8 130 6 80 -3 102 -8 157 -35z"/>
<path d="M5265 2865 c-163 -35 -264 -130 -306 -287 -8 -28 -13 -190 -16 -455
l-5 -413 131 0 131 0 0 366 c0 233 4 381 11 409 14 57 67 118 120 139 61 25
180 24 247 -2 l53 -20 -3 121 -3 122 -60 17 c-73 20 -216 22 -300 3z"/>
<path d="M5770 2498 c0 -212 5 -411 10 -446 31 -188 131 -299 308 -337 l32 -7
0 122 0 123 -44 41 c-26 24 -49 57 -56 81 -9 28 -14 155 -17 423 l-5 382 -114
0 -114 0 0 -382z"/>
<path d="M6323 2463 c4 -446 6 -464 58 -568 43 -87 141 -155 257 -180 l32 -7
0 129 0 128 -29 17 c-17 9 -40 36 -53 60 -23 43 -23 47 -26 441 l-3 397 -120
0 -121 0 5 -417z"/>
<path d="M7195 2865 c-111 -23 -227 -85 -299 -158 -74 -76 -110 -140 -136
-243 -61 -239 15 -495 186 -624 196 -148 504 -171 733 -55 129 65 218 168 267
311 24 69 28 94 27 199 0 191 -48 310 -171 427 -65 62 -124 95 -227 128 -91
29 -278 36 -380 15z m312 -240 c74 -33 138 -96 176 -174 29 -60 32 -73 32
-161 -1 -76 -5 -104 -23 -143 -32 -71 -102 -140 -175 -173 -54 -24 -75 -28
-157 -29 -86 0 -101 3 -161 31 -78 37 -129 85 -167 157 -24 47 -27 62 -27 157
0 91 3 112 25 155 88 180 301 261 477 180z"/>
</g>
</svg>
