<?xml version="1.0" encoding="UTF-8" standalone="no"?>
<svg
   xmlns:dc="http://purl.org/dc/elements/1.1/"
   xmlns:cc="http://creativecommons.org/ns#"
   xmlns:rdf="http://www.w3.org/1999/02/22-rdf-syntax-ns#"
   xmlns:svg="http://www.w3.org/2000/svg"
   xmlns="http://www.w3.org/2000/svg"
   xmlns:sodipodi="http://sodipodi.sourceforge.net/DTD/sodipodi-0.dtd"
   xmlns:inkscape="http://www.inkscape.org/namespaces/inkscape"
   height="384pt"
   viewBox="0 0 384 384"
   width="384pt"
   version="1.1"
   id="svg6"
   sodipodi:docname="measurement_timestamp.svg"
   inkscape:version="0.92.2 (5c3e80d, 2017-08-06)">
  <metadata
     id="metadata12">
    <rdf:RDF>
      <cc:Work
         rdf:about="">
        <dc:format>image/svg+xml</dc:format>
        <dc:type
           rdf:resource="http://purl.org/dc/dcmitype/StillImage" />
      </cc:Work>
    </rdf:RDF>
  </metadata>
  <defs
     id="defs10" />
  <sodipodi:namedview
     pagecolor="#ffffff"
     bordercolor="#666666"
     borderopacity="1"
     objecttolerance="10"
     gridtolerance="10"
     guidetolerance="10"
     inkscape:pageopacity="0"
     inkscape:pageshadow="2"
     inkscape:window-width="732"
     inkscape:window-height="480"
     id="namedview8"
     showgrid="false"
     inkscape:zoom="0.4609375"
     inkscape:cx="256"
     inkscape:cy="256"
     inkscape:window-x="0"
     inkscape:window-y="0"
     inkscape:window-maximized="0"
     inkscape:current-layer="svg6" />
  <path
     d="m343.59375 101.039062c-7.953125 3.847657-11.28125 13.417969-7.433594 21.367188 10.511719 21.714844 15.839844 45.121094 15.839844 69.59375 0 88.222656-71.777344 160-160 160s-160-71.777344-160-160 71.777344-160 160-160c36.558594 0 70.902344 11.9375 99.328125 34.519531 6.894531 5.503907 16.976563 4.351563 22.480469-2.566406 5.503906-6.914063 4.351562-16.984375-2.570313-22.480469-33.652343-26.746094-76-41.472656-119.238281-41.472656-105.863281 0-192 86.136719-192 192s86.136719 192 192 192 192-86.136719 192-192c0-29.335938-6.40625-57.449219-19.039062-83.527344-3.839844-7.96875-13.441407-11.289062-21.367188-7.433594zm0 0"
     id="path2" />
  <path
     d="m 198.7563,64.305855 c -8.81925,-0.47497 -16.36233,6.297146 -16.8373,15.116397 l -6.02315,111.837928 c -0.47497,8.81925 6.29715,16.36232 15.1164,16.83729 l 79.88423,4.30225 c 8.81925,0.47497 16.36233,-6.29714 16.8373,-15.11639 0.47497,-8.81925 -6.29715,-16.36233 -15.1164,-16.8373 l -63.90738,-3.4418 5.1627,-95.861078 c 0.47497,-8.819251 -6.29715,-16.362327 -15.1164,-16.837297 z m 0,0"
     id="path4"
     inkscape:connector-curvature="0"
     inkscape:transform-center-x="-42.1199"
     inkscape:transform-center-y="-51.342127" />
</svg>
